<svg width="124" height="32" viewBox="0 0 124 32" fill="none" xmlns="http://www.w3.org/2000/svg">
<rect width="123.667" height="32" rx="4" fill="#03DAC5"/>
<path fill-rule="evenodd" clip-rule="evenodd" d="M27.6667 16.8337H22.6667V21.8337H21V16.8337H16V15.167H21V10.167H22.6667V15.167H27.6667V16.8337Z" fill="black"/>
<path d="M46.9394 20.104V11.2H40.3314L40.2194 14.378C40.1214 17.5 39.8134 20.02 38.4134 20.104H37.9234L37.9094 23.198H38.8754L38.8894 21H47.4434V23.198H48.4094V20.104H46.9394ZM41.1434 14.476L41.2274 12.096H45.9174V20.104H39.8834C40.8214 19.39 41.0594 17.024 41.1434 14.476ZM53.1175 21.07C55.2735 21.07 56.8555 19.502 56.8555 17.318C56.8555 15.134 55.2735 13.58 53.1175 13.58C50.9615 13.58 49.3655 15.134 49.3655 17.318C49.3655 19.502 50.9615 21.07 53.1175 21.07ZM53.1175 20.188C51.5495 20.188 50.3735 19.04 50.3735 17.318C50.3735 15.596 51.5495 14.448 53.1175 14.448C54.6855 14.448 55.8475 15.596 55.8475 17.318C55.8475 19.04 54.6855 20.188 53.1175 20.188ZM62.5499 13.818C61.1639 13.818 60.0579 14.504 59.4699 15.638C59.5679 13.286 60.5199 12.236 62.6059 11.774L65.7139 11.06L65.5459 10.15L62.2419 10.906C59.7359 11.494 58.5179 13.034 58.5179 16.24C58.5179 19.236 59.8899 21.084 62.3679 21.084C64.5659 21.084 66.0779 19.586 66.0779 17.416C66.0779 15.288 64.6219 13.818 62.5499 13.818ZM62.3959 20.258C60.8279 20.258 59.7079 19.096 59.7079 17.444C59.7079 15.806 60.8139 14.714 62.3959 14.714C63.9779 14.714 65.0699 15.806 65.0699 17.444C65.0699 19.096 63.9639 20.258 62.3959 20.258ZM70.7014 13.58C69.5394 13.58 68.4474 13.944 67.7054 14.574L68.1534 15.316C68.7554 14.784 69.6514 14.448 70.6034 14.448C71.9754 14.448 72.6894 15.134 72.6894 16.394V16.842H70.3514C68.2374 16.842 67.5094 17.794 67.5094 18.928C67.5094 20.202 68.5314 21.07 70.1974 21.07C71.4154 21.07 72.2834 20.608 72.7314 19.852V21H73.6834V16.436C73.6834 14.532 72.6054 13.58 70.7014 13.58ZM70.3514 20.286C69.1754 20.286 68.4894 19.754 68.4894 18.9C68.4894 18.144 68.9514 17.584 70.3794 17.584H72.6894V18.788C72.2974 19.754 71.4714 20.286 70.3514 20.286ZM81.0195 17.192C81.7895 16.912 82.2655 16.352 82.2655 15.526C82.2655 14.308 81.2435 13.636 79.5775 13.636H76.3295V21H79.6755C81.5935 21 82.5175 20.272 82.5175 18.998C82.5175 18.032 82.0415 17.43 81.0195 17.192ZM77.2955 14.42H79.5075C80.6415 14.42 81.2715 14.826 81.2715 15.652C81.2715 16.478 80.6415 16.912 79.5075 16.912H77.2955V14.42ZM79.6335 20.216H77.2955V17.654H79.7315C80.9775 17.654 81.5375 18.06 81.5375 18.942C81.5375 19.824 80.8795 20.216 79.6335 20.216ZM84.8471 21H85.7431L90.6431 15.148V21H91.6371V13.636H90.7551L85.8411 19.488V13.636H84.8471V21ZM99.6658 13.636H93.0998V14.518H95.8858V21H96.8798V14.518H99.6658V13.636ZM104.267 16.24L102.097 16.212V13.636H101.103V21L104.071 21.014C106.031 21.042 107.095 20.16 107.095 18.592C107.095 17.08 106.115 16.254 104.267 16.24ZM104.015 20.258L102.097 20.23V16.954L104.015 16.982C105.387 16.996 106.087 17.5 106.087 18.592C106.087 19.698 105.373 20.272 104.015 20.258Z" fill="black"/>
</svg>
