<svg width="80" height="16" viewBox="0 0 80 16" fill="none" xmlns="http://www.w3.org/2000/svg">
<path d="M24.186 3.116C25.1007 3.116 25.9267 3.33067 26.664 3.76C27.4107 4.18933 27.994 4.78667 28.414 5.552C28.8433 6.308 29.058 7.15733 29.058 8.1C29.058 9.04267 28.8433 9.89667 28.414 10.662C27.994 11.418 27.4107 12.0107 26.664 12.44C25.9267 12.8693 25.1007 13.084 24.186 13.084C23.4207 13.084 22.7207 12.9627 22.086 12.72C21.4513 12.4773 20.9193 12.118 20.49 11.642L21.134 10.984C21.9087 11.768 22.912 12.16 24.144 12.16C24.8347 12.16 25.4647 12.0013 26.034 11.684C26.6033 11.3573 27.0607 10.914 27.406 10.354C27.7607 9.78467 27.9613 9.14533 28.008 8.436H22.954V7.582H27.994C27.9193 6.90067 27.7047 6.294 27.35 5.762C27.0047 5.22067 26.552 4.80067 25.992 4.502C25.432 4.194 24.816 4.04 24.144 4.04C22.912 4.04 21.9087 4.432 21.134 5.216L20.49 4.558C20.9193 4.082 21.4513 3.72267 22.086 3.48C22.7207 3.23733 23.4207 3.116 24.186 3.116ZM33.9728 9.724H32.2928V13H31.2988V5.636H32.2928V8.87H33.9868L36.5768 5.636H37.6548L34.7568 9.206L37.8648 13H36.6888L33.9728 9.724ZM42.2538 13.07C41.5258 13.07 40.8724 12.9113 40.2938 12.594C39.7244 12.2767 39.2764 11.8333 38.9498 11.264C38.6231 10.6853 38.4598 10.0367 38.4598 9.318C38.4598 8.59933 38.6231 7.95533 38.9498 7.386C39.2764 6.81667 39.7244 6.37333 40.2938 6.056C40.8724 5.73867 41.5258 5.58 42.2538 5.58C42.8884 5.58 43.4531 5.706 43.9478 5.958C44.4518 6.20067 44.8484 6.56 45.1378 7.036L44.3958 7.54C44.1531 7.176 43.8451 6.90533 43.4718 6.728C43.0984 6.54133 42.6924 6.448 42.2538 6.448C41.7218 6.448 41.2411 6.56933 40.8118 6.812C40.3918 7.04533 40.0604 7.38133 39.8178 7.82C39.5844 8.25867 39.4678 8.758 39.4678 9.318C39.4678 9.88733 39.5844 10.3913 39.8178 10.83C40.0604 11.2593 40.3918 11.5953 40.8118 11.838C41.2411 12.0713 41.7218 12.188 42.2538 12.188C42.6924 12.188 43.0984 12.0993 43.4718 11.922C43.8451 11.7447 44.1531 11.474 44.3958 11.11L45.1378 11.614C44.8484 12.09 44.4518 12.454 43.9478 12.706C43.4438 12.9487 42.8791 13.07 42.2538 13.07ZM53.6704 5.636V13H52.6764V6.518H48.0564V13H47.0624V5.636H53.6704ZM59.534 13.07C58.8247 13.07 58.1854 12.9113 57.616 12.594C57.0467 12.2673 56.5987 11.8193 56.272 11.25C55.9454 10.6807 55.782 10.0367 55.782 9.318C55.782 8.59933 55.9454 7.95533 56.272 7.386C56.5987 6.81667 57.0467 6.37333 57.616 6.056C58.1854 5.73867 58.8247 5.58 59.534 5.58C60.2434 5.58 60.8827 5.73867 61.452 6.056C62.0214 6.37333 62.4647 6.81667 62.782 7.386C63.1087 7.95533 63.272 8.59933 63.272 9.318C63.272 10.0367 63.1087 10.6807 62.782 11.25C62.4647 11.8193 62.0214 12.2673 61.452 12.594C60.8827 12.9113 60.2434 13.07 59.534 13.07ZM59.534 12.188C60.0567 12.188 60.5234 12.0713 60.934 11.838C61.354 11.5953 61.6807 11.2547 61.914 10.816C62.1474 10.3773 62.264 9.878 62.264 9.318C62.264 8.758 62.1474 8.25867 61.914 7.82C61.6807 7.38133 61.354 7.04533 60.934 6.812C60.5234 6.56933 60.0567 6.448 59.534 6.448C59.0114 6.448 58.54 6.56933 58.12 6.812C57.7094 7.04533 57.3827 7.38133 57.14 7.82C56.9067 8.25867 56.79 8.758 56.79 9.318C56.79 9.878 56.9067 10.3773 57.14 10.816C57.3827 11.2547 57.7094 11.5953 58.12 11.838C58.54 12.0713 59.0114 12.188 59.534 12.188ZM69.1904 5.58C69.8811 5.58 70.5064 5.73867 71.0664 6.056C71.6264 6.364 72.0651 6.80267 72.3824 7.372C72.6998 7.94133 72.8584 8.59 72.8584 9.318C72.8584 10.0553 72.6998 10.7087 72.3824 11.278C72.0651 11.8473 71.6264 12.2907 71.0664 12.608C70.5158 12.916 69.8904 13.07 69.1904 13.07C68.5931 13.07 68.0518 12.9487 67.5664 12.706C67.0904 12.454 66.6984 12.09 66.3904 11.614V15.716H65.3964V5.636H66.3484V7.092C66.6471 6.60667 67.0391 6.23333 67.5244 5.972C68.0191 5.71067 68.5744 5.58 69.1904 5.58ZM69.1204 12.188C69.6338 12.188 70.1004 12.0713 70.5204 11.838C70.9404 11.5953 71.2671 11.2547 71.5004 10.816C71.7431 10.3773 71.8644 9.878 71.8644 9.318C71.8644 8.758 71.7431 8.26333 71.5004 7.834C71.2671 7.39533 70.9404 7.05467 70.5204 6.812C70.1004 6.56933 69.6338 6.448 69.1204 6.448C68.5978 6.448 68.1264 6.56933 67.7064 6.812C67.2958 7.05467 66.9691 7.39533 66.7264 7.834C66.4931 8.26333 66.3764 8.758 66.3764 9.318C66.3764 9.878 66.4931 10.3773 66.7264 10.816C66.9691 11.2547 67.2958 11.5953 67.7064 11.838C68.1264 12.0713 68.5978 12.188 69.1204 12.188ZM79.9006 6.518H77.1146V13H76.1206V6.518H73.3346V5.636H79.9006V6.518Z" fill="#7D7D7D"/>
<path d="M20 14.4H79.9286V15.1H20V14.4Z" fill="#7D7D7D"/>
<path d="M2.50008 6.67067H5.67091V3.49984H10.0001V6.9915H10.8334V3.49984C10.8334 3.27882 10.7456 3.06686 10.5893 2.91058C10.4331 2.7543 10.2211 2.6665 10.0001 2.6665H4.52925L1.66675 5.529V13.4998C1.66675 13.7209 1.75455 13.9328 1.91083 14.0891C2.06711 14.2454 2.27907 14.3332 2.50008 14.3332H10.0001C10.2211 14.3332 10.4331 14.2454 10.5893 14.0891C10.7456 13.9328 10.8334 13.7209 10.8334 13.4998H2.50008V6.67067ZM2.50008 5.87067L4.87091 3.49984H5.00008V5.99984H2.50008V5.87067Z" fill="#7D7D7D"/>
<path d="M11.7999 7.81259C11.7202 7.74433 11.6177 7.70866 11.5128 7.71271C11.4079 7.71676 11.3085 7.76024 11.2343 7.83444C11.1601 7.90865 11.1166 8.00812 11.1125 8.11299C11.1085 8.21785 11.1442 8.32038 11.2124 8.40009L12.5666 9.75009H7.49992C7.38941 9.75009 7.28343 9.79399 7.20529 9.87213C7.12715 9.95027 7.08325 10.0563 7.08325 10.1668C7.08325 10.2773 7.12715 10.3832 7.20529 10.4614C7.28343 10.5395 7.38941 10.5834 7.49992 10.5834H12.5791L11.2124 11.9501C11.1688 11.9874 11.1334 12.0334 11.1084 12.0851C11.0834 12.1368 11.0693 12.1931 11.0671 12.2505C11.0649 12.3079 11.0745 12.3651 11.0955 12.4186C11.1164 12.472 11.1482 12.5206 11.1888 12.5612C11.2294 12.6018 11.278 12.6336 11.3315 12.6545C11.3849 12.6755 11.4421 12.6851 11.4995 12.6829C11.5569 12.6807 11.6132 12.6667 11.6649 12.6416C11.7166 12.6166 11.7626 12.5812 11.7999 12.5376L14.1666 10.1668L11.7999 7.81259Z" fill="#7D7D7D"/>
</svg>
