<svg width="15" height="15" viewBox="0 0 15 15" fill="none" xmlns="http://www.w3.org/2000/svg">
<path d="M7.5 0C3.35787 0 0 3.35787 0 7.5C0 11.6421 3.35787 15 7.5 15C11.6421 15 15 11.6421 15 7.5C15 3.35787 11.6421 0 7.5 0ZM7.5 1.62964C10.7421 1.62964 13.3695 4.2587 13.3695 7.5C13.3695 10.7413 10.7421 13.3695 7.5 13.3695C4.25787 13.3695 1.63055 10.7413 1.63055 7.5C1.63056 4.2587 4.25787 1.62964 7.5 1.62964ZM11.0701 4.63486C10.6856 4.25034 10.0621 4.25037 9.67765 4.63493L6.02691 8.28644L5.30823 7.56775C4.92644 7.18596 4.30746 7.18586 3.92555 7.56752C3.54345 7.94936 3.54335 8.56869 3.92532 8.95066L4.64355 9.66889L5.32873 10.3541C5.71934 10.7447 6.35268 10.7446 6.74317 10.3538L7.41853 9.67804L11.07 6.0273C11.4546 5.64282 11.4546 5.01938 11.0701 4.63486Z" fill="#7A7A7A"/>
</svg>
