<svg width="124" height="36" viewBox="0 0 124 36" fill="none" xmlns="http://www.w3.org/2000/svg">
<rect width="124" height="36" rx="4" fill="#6200EE" fill-opacity="0.12"/>
<path d="M23.5 16.1707H26.6708V12.9998H31V16.4915H31.8333V12.9998C31.8333 12.7788 31.7455 12.5669 31.5892 12.4106C31.4329 12.2543 31.221 12.1665 31 12.1665H25.5291L22.6666 15.029V22.9998C22.6666 23.2209 22.7544 23.4328 22.9107 23.5891C23.067 23.7454 23.2789 23.8332 23.5 23.8332H31C31.221 23.8332 31.4329 23.7454 31.5892 23.5891C31.7455 23.4328 31.8333 23.2209 31.8333 22.9998H23.5V16.1707ZM23.5 15.3707L25.8708 12.9998H26V15.4998H23.5V15.3707Z" fill="#6100FF"/>
<path d="M32.8 17.3126C32.7203 17.2443 32.6178 17.2087 32.5129 17.2127C32.4081 17.2168 32.3086 17.2602 32.2344 17.3344C32.1602 17.4086 32.1167 17.5081 32.1127 17.613C32.1086 17.7179 32.1443 17.8204 32.2125 17.9001L33.5667 19.2501H28.5C28.3895 19.2501 28.2836 19.294 28.2054 19.3721C28.1273 19.4503 28.0834 19.5563 28.0834 19.6668C28.0834 19.7773 28.1273 19.8832 28.2054 19.9614C28.2836 20.0395 28.3895 20.0834 28.5 20.0834H33.5792L32.2125 21.4501C32.1689 21.4874 32.1335 21.5334 32.1085 21.5851C32.0835 21.6368 32.0694 21.6931 32.0672 21.7505C32.065 21.8079 32.0747 21.8651 32.0956 21.9186C32.1166 21.972 32.1483 22.0206 32.1889 22.0612C32.2295 22.1018 32.2781 22.1336 32.3316 22.1545C32.385 22.1755 32.4423 22.1851 32.4996 22.1829C32.557 22.1807 32.6133 22.1667 32.665 22.1416C32.7167 22.1166 32.7627 22.0812 32.8 22.0376L35.1667 19.6668L32.8 17.3126Z" fill="#6100FF"/>
<path d="M45.2241 13.116C43.7121 13.116 42.3961 13.606 41.5281 14.558L42.1721 15.216C42.9841 14.39 44.0061 14.04 45.1821 14.04C47.2261 14.04 48.8081 15.524 49.0321 17.582H43.9921V18.436H49.0461C48.8921 20.592 47.2821 22.16 45.1821 22.16C44.0061 22.16 42.9841 21.81 42.1721 20.984L41.5281 21.642C42.3961 22.608 43.7121 23.084 45.2241 23.084C48.0101 23.084 50.0961 20.97 50.0961 18.1C50.0961 15.23 48.0101 13.116 45.2241 13.116ZM57.7269 23H58.9029L55.7949 19.206L58.6929 15.636H57.6149L55.0249 18.87H53.3309V15.636H52.3369V23H53.3309V19.724H55.0109L57.7269 23ZM63.2919 23.07C64.5379 23.07 65.5879 22.566 66.1759 21.614L65.4339 21.11C64.9299 21.852 64.1459 22.188 63.2919 22.188C61.6819 22.188 60.5059 21.054 60.5059 19.318C60.5059 17.596 61.6819 16.448 63.2919 16.448C64.1459 16.448 64.9299 16.798 65.4339 17.54L66.1759 17.036C65.5879 16.07 64.5379 15.58 63.2919 15.58C61.0939 15.58 59.4979 17.12 59.4979 19.318C59.4979 21.516 61.0939 23.07 63.2919 23.07ZM68.1005 15.636V23H69.0945V16.518H73.7145V23H74.7085V15.636H68.1005ZM80.5721 23.07C82.7281 23.07 84.3101 21.502 84.3101 19.318C84.3101 17.134 82.7281 15.58 80.5721 15.58C78.4161 15.58 76.8201 17.134 76.8201 19.318C76.8201 21.502 78.4161 23.07 80.5721 23.07ZM80.5721 22.188C79.0041 22.188 77.8281 21.04 77.8281 19.318C77.8281 17.596 79.0041 16.448 80.5721 16.448C82.1401 16.448 83.3021 17.596 83.3021 19.318C83.3021 21.04 82.1401 22.188 80.5721 22.188ZM90.2285 15.58C89.0105 15.58 87.9885 16.112 87.3865 17.092V15.636H86.4345V25.716H87.4285V21.614C88.0445 22.566 89.0525 23.07 90.2285 23.07C92.3285 23.07 93.8965 21.558 93.8965 19.318C93.8965 17.092 92.3285 15.58 90.2285 15.58ZM90.1585 22.188C88.5905 22.188 87.4145 21.04 87.4145 19.318C87.4145 17.61 88.5905 16.448 90.1585 16.448C91.7125 16.448 92.9025 17.61 92.9025 19.318C92.9025 21.04 91.7125 22.188 90.1585 22.188ZM100.939 15.636H94.3727V16.518H97.1587V23H98.1527V16.518H100.939V15.636Z" fill="#6200EE"/>
<rect x="0.5" y="0.5" width="123" height="35" rx="3.5" stroke="black" stroke-opacity="0.12"/>
</svg>
